<?xml version="1.0" encoding="utf-8"?>
<!-- Generator: Adobe Illustrator 16.0.0, SVG Export Plug-In . SVG Version: 6.00 Build 0)  -->
<!DOCTYPE svg PUBLIC "-//W3C//DTD SVG 1.1//EN" "http://www.w3.org/Graphics/SVG/1.1/DTD/svg11.dtd">
<svg version="1.1" id="Layer_1" xmlns="http://www.w3.org/2000/svg" xmlns:xlink="http://www.w3.org/1999/xlink" x="0px" y="0px"
	 width="1018.33px" height="1010.66px" viewBox="0 0 1018.33 1010.66" enable-background="new 0 0 1018.33 1010.66"
	 xml:space="preserve">
<g id="XMLID_1_">
	<g>
		<circle cx="513" cy="505.33" r="495.83"/>
	</g>
	<g>
		<circle fill="none" stroke="#000000" stroke-width="19" stroke-miterlimit="10" cx="513" cy="505.33" r="495.83"/>
	</g>
</g>
<circle fill="#FFFFFF" stroke="#000000" stroke-width="19" stroke-miterlimit="10" cx="513" cy="505.33" r="458.333"/>
<g>
	<g>
		<path d="M-82.213,242.848c1.935,0,1.935-3,0-3S-84.147,242.848-82.213,242.848L-82.213,242.848z"/>
	</g>
</g>
<g>
	<g>
		<path d="M336.917,557.274c31.117-4.805,62.476-7.937,93.49-13.413c14.419-2.546,28.544-5.527,42.16-11.01
			c12.627-5.085,24.754-11.347,37.691-15.651c13.98-4.651,28.94-5.227,43.456-7.161c15.53-2.069,31.001-4.509,46.354-7.649
			c15.322-3.134,30.206-7.609,45.314-11.566c15.009-3.931,30.284-6.758,45.414-10.167c12.673-2.855,25.227-6.223,37.394-10.803
			c4.587-1.727,7.677-6.013,6.286-11.071c-1.212-4.403-6.475-8.016-11.071-6.286c-29.089,10.951-60.163,14.511-89.968,22.917
			c-29.912,8.436-60.074,14.245-90.918,18.064c-14.847,1.839-29.081,3.29-43.199,8.535c-12.768,4.744-24.865,11.101-37.633,15.844
			c-13.913,5.168-28.891,7.481-43.475,9.923c-15.39,2.576-30.871,4.578-46.34,6.606c-13.262,1.738-26.522,3.491-39.742,5.532
			c-4.856,0.75-7.472,6.76-6.286,11.071C327.258,556.122,332.073,558.022,336.917,557.274L336.917,557.274z"/>
	</g>
</g>
<g>
	<g>
		<path d="M329.432,557.596c32.147-0.684,64.191,2.49,96.307,3.261c15.552,0.373,30.864,0.619,46.315,2.712
			c15.408,2.088,30.696,4.974,46.077,7.24c31.503,4.642,63.418,4.356,95.042,8.147c31.629,3.791,63.042,9.187,94.708,12.697
			c15.261,1.691,30.577,2.86,45.927,3.288c11.614,0.324,11.583-17.677,0-18c-63.917-1.781-126.432-17.573-190.283-20.185
			c-15.527-0.635-30.771-1.782-46.146-4.138c-15.551-2.383-31.026-5.176-46.628-7.222c-15.651-2.053-31.186-2.209-46.931-2.587
			c-16.087-0.386-32.152-1.424-48.221-2.234c-15.377-0.776-30.769-1.308-46.167-0.98
			C317.841,539.842,317.817,557.843,329.432,557.596L329.432,557.596z"/>
	</g>
</g>
<g>
	<g>
		<path d="M716.889,455.66c-5.386,5.076-9.294,12.441-8.962,19.99c0.438,9.948,8.578,15.38,17.872,15.743
			c-2.591-4.514-5.181-9.028-7.771-13.542c-4.177,8.834-10.621,16.259-13.512,25.769c-1.725,5.676-1.15,12.129,2.953,16.641
			c4.799,5.275,12.551,5.767,19.18,5.084c-2.893-3.798-5.785-7.595-8.679-11.393c-1.741,7.892-7.269,21.578,0.259,28.141
			c3.418,2.979,7.096,3.913,11.324,5.087c-2.744-4.735-3.988-5.541-3.731-2.418c-0.029,1.006-0.56,2.354-0.76,3.354
			c-0.512,2.558-0.613,5.194-0.853,7.787c-0.712,7.681,0.499,16.208,4.777,22.755c5.471,8.372,15.22,11.431,24.821,10.343
			c4.873-0.552,9-3.676,9-9c0-4.487-4.114-9.554-9-9c-2.371,0.269-5.961,0.462-7.45-0.228c-1.535-0.71-1.29-0.762-2.041-1.527
			c0.57,0.582-0.999-1.728-1.234-2.199c-1.569-3.145-1.363-10.651-0.368-15.617c1.879-9.388,1.368-18.903-9.303-21.864
			c-1.346-0.373-2.702-0.647-4.033-1.076c2.515,4.989,3.6,6.002,3.255,3.037c0.023-0.556,0.045-1.111,0.065-1.667
			c0.548-3.772,1.81-7.408,2.629-11.122c1.147-5.204-2.546-12.024-8.679-11.393c-1.297,0.134-2.581,0.231-3.885,0.279
			c0.102-0.004-3.45-0.215-1.688,0.046c-0.427-0.063-2.795-0.954-0.786-0.03c-1.688-0.776,1.488,2.144,0.702,0.768
			c1.093,1.913,0.455-0.502,0.583,1.705c-0.032-0.559,0.349-2.521-0.055-0.272c0.132-0.737,0.359-1.458,0.577-2.174
			c0.164-0.509,0.343-1.013,0.535-1.512c-0.386,0.861-0.357,0.798,0.085-0.188c3.003-6.689,7.729-12.424,10.853-19.03
			c2.935-6.207-0.574-13.261-7.771-13.542c-1.952-0.076-1.288-0.272-0.479,0.408c0.303,0.329,0.506,0.711,0.609,1.147
			c-0.748-2.023-0.1,1.173-0.004-1.115c-0.031,0.743,0.736-1.692,0.989-2.167c0.794-1.486,1.485-2.132,2.702-3.279
			C738.079,460.412,725.327,447.707,716.889,455.66L716.889,455.66z"/>
	</g>
</g>
<g>
	<g>
		<path d="M721.423,464.868c1.188,2.657,1.478,5.932,2.088,8.76c0.739,3.425,2.101,6.553,3.77,9.621
			c3.497,6.428,10.11,10.478,12.63,17.453c0.83,2.297,1.465,5.04,1.541,6.636c0.01,0.201-0.361,3.066-0.018,1.257
			c-0.124,0.554-0.286,1.096-0.486,1.627c0.342-0.889,0.269-0.87-0.22,0.057c0.89-1.464-0.618,0.513-0.835,0.714
			c0.884-0.818-1.775,0.96-2.173,1.164c-1.87,0.961-5.724,1.767-8.372,2.298c3.69,2.096,7.381,4.19,11.071,6.286
			c0.414,1.957,0.116-0.749,0.141-1.12c-0.042,0.631,0.52-2.401,0.635-2.927c0.697-3.172,1.359-6.34,1.558-9.592
			c0.512-8.381-6.293-13.531-14.104-13.48c-8.2,0.053-14.202,6.423-16.887,13.588c-2.775,7.406,1.314,14.854,7.548,18.74
			c23.482,14.646,44.402-33.806,13.976-40.352c-11.318-2.435-16.131,14.917-4.785,17.357c0.669,0.12,1.327,0.284,1.975,0.493
			c-0.702-0.343-0.601-0.274,0.306,0.207c-0.694-0.624-0.674-0.593,0.062,0.093c-0.582-0.855-0.603-0.857-0.061-0.008
			c-1.201-1.946,0.268,2.123,0.011-0.261c0.038,0.514,0.046,1.028,0.023,1.542c-0.035,2.48,0.414-1.723-0.148,0.736
			c-0.317,1.384-1.344,3.102-1.882,3.694c-0.354,0.37-0.726,0.72-1.117,1.049c0.834-0.641,0.834-0.687-0.002-0.139
			c-1.082,0.653,0.929-0.05-0.208-0.069c0.995,0.018,0.979,0.142,0.212-0.338c1.61,1.005,0.971,3.848,1.449,2.039
			c-0.242,0.914,1.102-0.954,0.129-0.249c-0.631,0.006-0.388-0.092,0.73-0.294c-3.136,0.878-4.968-2.87-5.237-5.201
			c0.589,5.104-3.094,12.589-1.679,19.275c1.067,5.042,6.497,7.203,11.071,6.286c7.163-1.437,14.557-3.863,19.715-9.304
			c5.46-5.76,6.049-13.208,4.98-20.666c-1.333-9.305-6.647-16.76-12.811-23.511c-5.857-6.417-5.605-14.841-9.052-22.547
			c-2.004-4.48-8.431-5.504-12.313-3.229C720.083,455.231,719.42,460.39,721.423,464.868L721.423,464.868z"/>
	</g>
</g>
<g>
	<g>
		<path d="M747.443,524.405c5.294,4.247,11.238,7.558,15.896,12.565c0.957,1.028,1.125,1.377,1.441,2.384
			c-0.22-0.699,0.498-1.639,1.044-2.001c-1.869,1.241-5.919,1.129-8.854,1.098c-3.282-0.034-6.006-0.332-8.886-1.255
			c-1.494-0.478-1.314-0.7-1.843-1.236c0.447,0.402,0.714,0.904,0.801,1.506c-0.808-1.923-0.072,1.847-0.043-0.16
			c-0.021,1.476,0.365,0.824-0.456,1.734c0.729-0.665,0.67-0.641-0.177,0.072c1.847-1.283-1.637,0.402,0.6-0.332
			c1.026-0.224,1.03-0.257,0.014-0.101c0.201-0.021,2.806,0.228,1.165-0.061c1.732,0.305,2.122,0.656,3.667,1.622
			c9.872,6.173,18.899-9.405,9.084-15.543c-10.819-6.766-25.641-4.799-30.926,7.76c-5.884,13.983,10.245,22.454,21.439,23.648
			c12.805,1.365,31.017-0.804,31.339-17.229c0.133-6.752-4.525-12.772-9.186-17.143c-2.585-2.424-5.516-4.521-8.39-6.584
			c-1.158-0.832-2.337-1.636-3.509-2.447c-0.321-0.223-3.292-2.47-1.493-1.026c-3.822-3.067-8.979-3.75-12.729,0
			C744.26,514.861,743.611,521.33,747.443,524.405L747.443,524.405z"/>
	</g>
</g>
<g>
	<g>
		<path d="M770.783,545.537c-1.713-0.188,2.434,0.358,0.466,0.067c-0.605-0.09-1.208-0.19-1.812-0.29
			c-1.456-0.238-2.91-0.486-4.366-0.723c-4.251-0.69-8.527-1.285-12.82-1.635c-8.229-0.671-16.258,0.197-22.926,5.355
			c-7.654,5.922-5.921,19.16-0.25,25.662c6.487,7.438,18.104,8.755,27.351,8.834c10.625,0.091,21.1-2.533,27.799-11.321
			c7.689-10.087-2.995-21.279-12.49-23.739c-10.479-2.716-22.946,1.349-29.803,9.702c-5.918,7.211-8.405,19.248,0.988,25.01
			c5.859,3.594,13.086,2.448,19.222,0.277c-3.798-2.894-7.595-5.786-11.393-8.679c0.325,5.728,2.763,10.114,5.473,13.879
			c2.86,3.973,7.777,5.886,12.313,3.229c3.931-2.303,6.102-8.324,3.229-12.314c-1.311-1.819-2.913-2.99-3.016-4.793
			c-0.311-5.458-5.578-10.736-11.393-8.679c-1.677,0.594-3.337,1.094-5.077,1.46c0.811-0.171-3.055-0.552-0.643-0.014
			c1.573,0.351,2.306,1.876,2.831,3.205c-0.313-0.795-0.147,1.553,0.194,0.374c-0.556,1.911,0.554-0.843,0.891-1.354
			c-0.94,1.424,2.189-1.943,1.373-1.335c2.345-1.747,4.617-2.596,7.748-2.746c1.453-0.07,2.184,0.11,3.323,0.405
			c1.452,0.376,0.873,0.229,1.576,0.948c-1.355-1.386-1.229-2.858-0.457-4.658c-0.278,0.65-0.928,0.849-2.523,1.698
			c-2.47,1.314-4.16,1.143-5.893,1.287c-3.294,0.276-6.615,0.177-9.904-0.107c-2.035-0.177-4.738-0.878-7.105-1.727
			c1.422,0.51-2.355-1.691-0.765-0.395c-0.729-0.766-0.787-0.765-0.174,0.003c-1.138-1.594,0.26,1.093-0.385-1.178
			c-0.437-1.535-0.199,0.587-0.12-1.673c-0.195,1.251-0.172,1.396,0.071,0.437c-0.106,0.359-1.85,2.662-0.713,1.436
			c0.715-0.64,0.593-0.547-0.365,0.279c0.861-0.452,0.735-0.438-0.38,0.043c1.122-0.47,2.338-0.707,3.527-0.923
			c-2.137,0.388,1.252-0.037,1.673-0.056c1.462-0.065,2.929-0.013,4.39,0.051c1.204,0.053,2.405,0.161,3.605,0.271
			c0.579,0.054,4.498,0.551,2.915,0.328c4.612,0.648,9.181,1.586,13.813,2.096c4.887,0.537,9-4.501,9-9
			C779.783,549.226,775.658,546.073,770.783,545.537L770.783,545.537z"/>
	</g>
</g>
<g>
	<g>
		<path d="M315.72,547.449c-7.451,12.71-11.695,27.272-15.369,41.445c-4.005,15.451-7.405,31.208-9.325,47.059
			c-2.185,18.037-2.117,36.633,0.475,54.615c2.542,17.634,9.558,34.295,17.429,50.145c5.163,10.396,20.688,1.274,15.542-9.086
			c-7.003-14.1-12.655-28.589-15.347-44.161c-2.788-16.121-1.965-33.487-0.303-49.684c1.469-14.318,5.01-28.634,8.498-42.577
			c3.303-13.204,7.012-26.848,13.942-38.672C337.145,546.498,321.584,537.444,315.72,547.449L315.72,547.449z"/>
	</g>
</g>
<g>
	<g>
		<path d="M313.855,748.186c20.686,14.126,45.99,20.623,70.207,25.646c26.346,5.463,53.046,9.854,79.543,14.526
			c31.488,5.553,63.207,9.696,94.895,13.91c31.624,4.205,62.715,9.973,93.936,16.506c14.379,3.009,28.778,5.918,43.269,8.347
			c7.617,1.276,15.132,1.966,22.854,2.112c7.286,0.138,14.631,0.017,21.824,1.341c4.82,0.887,9.687-1.254,11.071-6.286
			c1.215-4.416-1.457-10.183-6.286-11.071c-15.414-2.837-31.113-1.181-46.557-3.768c-15.763-2.642-31.411-5.937-47.051-9.218
			c-31.537-6.618-62.997-11.966-94.938-16.213c-31.356-4.169-62.712-8.412-93.85-14.018c-26.164-4.711-52.554-8.928-78.548-14.501
			c-21.27-4.561-43.115-10.449-61.283-22.856C313.326,726.077,304.334,741.683,313.855,748.186L313.855,748.186z"/>
	</g>
</g>
<g>
	<g>
		<path d="M743.11,591.883c0.052,20.143,1.624,40.219,3.334,60.276c1.72,20.187,3.052,40.388,4.534,60.591
			c1.397,19.032,3.557,39.949-0.988,58.681c-3.915,16.14-12.746,30.616-15.046,47.223c-0.672,4.855,1.098,9.644,6.286,11.071
			c4.256,1.17,10.396-1.417,11.071-6.286c2.292-16.552,10.826-31.199,15.046-47.223c5.157-19.583,3.145-41.515,1.772-61.477
			c-1.389-20.222-2.779-40.438-4.51-60.636c-1.774-20.704-3.446-41.427-3.5-62.221C761.08,580.276,743.08,580.273,743.11,591.883
			L743.11,591.883z"/>
	</g>
</g>
<g>
	<g>
		<path d="M299.726,688.304c15.252-0.384,29.983,2.701,44.762,6.128c15.386,3.566,30.833,6.516,46.367,9.359
			c32.278,5.908,64.603,11.515,97.144,15.781c63.977,8.389,128.213,14.621,191.984,24.577c25.917,4.046,51.738,8.719,77.374,14.279
			c11.316,2.454,16.127-14.897,4.785-17.357c-63.088-13.683-127.198-21.82-191.244-29.483c-32.017-3.83-64.112-7.251-96.033-11.826
			c-32.376-4.641-64.543-10.624-96.706-16.538c-25.977-4.775-51.755-13.591-78.433-12.92
			C288.14,670.595,288.111,688.596,299.726,688.304L299.726,688.304z"/>
	</g>
</g>
<g>
	<g>
		<path d="M308.213,616.16c31.869-0.011,63.789-0.524,95.543,2.652c31.413,3.142,62.278,10.381,93.723,13.455
			c15.939,1.558,32.045,1.509,48.045,1.982c16.019,0.474,32.035,1.048,48.034,2.005c16,0.956,32.002,2.331,47.891,4.466
			c16.078,2.16,32.305,3.401,48.336,5.867c10.7,1.646,21.333,3.141,31.879,5.661c10.909,2.608,21.619,6.01,32.298,9.422
			c11.089,3.543,15.798-13.839,4.785-17.357c-13.971-4.463-27.984-8.744-42.376-11.642c-15.536-3.129-31.473-4.965-47.23-6.563
			c-16.245-1.647-32.373-4.174-48.627-5.764c-15.98-1.563-32.02-2.477-48.06-3.16c-31.716-1.352-63.507-0.869-95-5.314
			c-31.551-4.453-62.683-10.844-94.561-12.688c-24.861-1.438-49.792-1.03-74.681-1.021
			C296.605,598.164,296.605,616.164,308.213,616.16L308.213,616.16z"/>
	</g>
</g>
<g>
	<g>
		<path d="M463.535,629.329c-0.572-0.059-1.143-0.117-1.715-0.175c2.924,0.393,5.849,0.785,8.773,1.179
			c-4.308-0.656-8.304-1.957-12.311-3.647c2.627,1.109,5.255,2.218,7.883,3.327c-7.531-3.326-14.932-6.964-22.714-9.69
			c-8.447-2.959-17.591-3.852-26.44-4.683c-13.615-1.278-27.219-1.259-40.811-3.078c2.924,0.393,5.848,0.785,8.772,1.179
			c-16.537-2.325-32.853-5.915-49.313-8.695c-5.848-1.571-11.697-1.571-17.545,0c-7.75,2.132-16.075,7.761-19.722,15.166
			c-6.412,13.017-8.1,26.508-0.979,39.813c5.138,9.6,15.267,16.294,25.666,18.847c10.278,2.523,19.89,1.084,30.119,2.029
			c-2.924-0.393-5.849-0.786-8.773-1.179c13.927,2.08,26.648,8.666,40.501,11.273c15.921,2.996,31.946,5.428,47.994,7.638
			c34.968,4.816,70.108,8.036,105.087,12.683c-2.925-0.394-5.849-0.786-8.773-1.179c33.053,4.469,65.209,13.105,98.181,17.922
			c33.108,4.836,66.194,10.136,98.95,17.017c16.819,3.533,36.609-4.694,40.594-23.049c3.771-17.374,0.914-36.031-6.609-52.005
			c-9.229-19.596-31.712-24.874-51.159-26.617c-11.814-1.06-23.787-0.223-35.638-0.622c-18.226-0.615-36.434-1.785-54.521-4.164
			c2.925,0.394,5.849,0.786,8.773,1.179c-16.027-2.187-31.831-5.444-47.926-7.241c-14.355-1.604-28.83-1.98-43.263-2.119
			c-28.174-0.271-56.42,0.668-84.436-2.973c2.924,0.394,5.849,0.786,8.773,1.179c-6.161-0.848-12.274-1.907-18.352-3.228
			c2.628,20.105,5.256,40.211,7.883,60.315c0.934-0.489,1.871-0.936,2.837-1.356c-2.628,1.109-5.255,2.218-7.883,3.327
			c4.09-1.623,8.331-2.548,12.676-3.176c-2.924,0.393-5.849,0.786-8.773,1.179c20.875-2.672,42.938,0.011,63.729,2.592
			c-2.924-0.393-5.849-0.785-8.773-1.179c23.658,3.2,46.502,10.079,70.309,12.632c23.235,2.49,46.688-0.834,69.974,2.092
			c-2.925-0.393-5.849-0.785-8.772-1.179c5.059,0.699,10.053,1.625,15.018,2.824c17.471,4.222,35.714-5.309,40.594-23.049
			c4.654-16.92-5.567-36.369-23.049-40.594c-17.019-4.112-34.643-5.52-52.113-5.642c-15.713-0.111-31.405,0.947-47.038-1.095
			c2.924,0.394,5.849,0.786,8.772,1.179c-13.569-1.918-26.844-5.319-40.25-8.089c-14.328-2.96-28.863-4.383-43.409-5.741
			c-25.743-2.403-53.531-4.112-77.159,8.286c-24.771,12.997-19.746,54.313,7.883,60.315c27.363,5.944,55.328,7.221,83.234,7.323
			c26.388,0.097,52.832-0.409,79.052,3.088c-2.924-0.393-5.849-0.785-8.772-1.179c14.145,1.996,28.145,4.709,42.321,6.573
			c12.405,1.632,24.894,2.585,37.384,3.261c9.571,0.519,19.179,1,28.767,0.921c8.671-0.072,17.352-0.28,25.979,0.761
			c-2.924-0.393-5.849-0.786-8.772-1.179c3.856,0.534,7.614,1.316,11.227,2.798c-2.628-1.109-5.256-2.218-7.884-3.327
			c1.518,0.699,2.906,1.489,4.244,2.492c-2.227-1.72-4.453-3.439-6.68-5.16c0.605,0.519,1.142,1.005,1.659,1.608
			c-1.72-2.226-3.44-4.452-5.16-6.679c0.678,0.946,1.21,1.921,1.705,2.974c-1.109-2.628-2.218-5.256-3.327-7.884
			c1.634,3.895,2.514,8.005,3.143,12.168c-0.393-2.924-0.785-5.849-1.179-8.772c0.572,4.284,0.926,8.635,0.417,12.943
			c0.393-2.924,0.785-5.849,1.179-8.772c-0.066,0.493-0.158,0.982-0.276,1.466c13.531-7.683,27.063-15.366,40.594-23.049
			c-11.751-2.469-23.644-4.164-35.436-6.414c-11.764-2.245-23.403-4.773-35.258-6.568c-24.617-3.728-49.114-6.909-73.389-12.568
			c-50.601-11.795-102.881-14.667-154.267-21.545c2.924,0.393,5.849,0.785,8.773,1.179c-12.222-1.651-24.423-3.44-36.589-5.463
			c-11.339-1.885-22.604-3.7-33.468-7.546c-10.91-3.862-21.707-7.482-33.46-7.729c-5.514-0.115-11.003,0.339-16.502-0.303
			c2.924,0.393,5.848,0.786,8.772,1.179c-1.825-0.26-3.581-0.627-5.29-1.33c2.627,1.108,5.255,2.218,7.883,3.326
			c-0.594-0.291-1.127-0.6-1.667-0.983c2.227,1.72,4.453,3.44,6.679,5.16c-0.313-0.243-0.594-0.518-0.846-0.823
			c1.72,2.227,3.44,4.453,5.16,6.68c-0.243-0.298-0.444-0.621-0.604-0.971c1.109,2.628,2.218,5.256,3.327,7.883
			c-0.162-0.361-0.274-0.737-0.335-1.129c0.393,2.925,0.786,5.849,1.179,8.773c-0.066-0.432-0.08-0.865-0.041-1.301
			c-0.393,2.925-0.786,5.849-1.179,8.773c0.154-1.124,0.471-2.112,0.905-3.159c-1.109,2.628-2.218,5.255-3.327,7.883
			c0.15-0.305,0.3-0.609,0.451-0.915c-12.422,5.056-24.845,10.11-37.267,15.166c16.46,2.78,32.775,6.37,49.313,8.694
			c10.436,1.468,20.898,2.805,31.427,3.362c7.857,0.415,15.708,0.477,23.523,1.495c-2.924-0.393-5.849-0.786-8.772-1.179
			c5.875,0.893,11.457,2.424,16.958,4.673c-2.627-1.108-5.255-2.218-7.883-3.326c6.522,2.811,12.958,5.771,19.508,8.532
			c6.801,2.869,14.039,3.643,21.348,4.39c17.929,1.832,33-16.397,33-33c0-8.717-3.505-17.174-9.666-23.335
			C480.201,632.326,472.609,630.256,463.535,629.329L463.535,629.329z"/>
	</g>
</g>
<rect x="380.189" y="185.33" fill="none" width="265.623" height="216.432"/>
<text transform="matrix(1 0 0 1 380.189 366.4731)" font-family="'NotoSansKR-Bold-KSCpc-EUC-H'" font-size="227">J?</text>
</svg>
